<svg width="139" height="291" viewBox="0 0 139 291" fill="none" xmlns="http://www.w3.org/2000/svg">
<path d="M65.569 0.046987C82.4214 -0.617365 98.3482 5.80835 111.311 16.4595C112.444 17.5673 113.577 18.6751 114.745 19.8164C114.745 20.6221 114.745 21.4277 114.745 22.2578C115.55 22.2578 116.356 22.2578 117.186 22.2578C119.063 24.6102 120.77 26.9415 122.45 29.4293C122.942 30.1538 123.434 30.8783 123.941 31.6248C136.095 49.8162 140.35 68.2235 137.365 89.8867C134.462 103.316 126.706 116.571 115.202 124.414C102.155 131.859 89.1324 132.993 74.4619 133.34C73.1376 145.386 75.8314 151.873 83.0067 161.416C97.8803 182.029 98.088 204.821 97.9733 229.396C97.9599 232.81 97.9734 236.224 97.9888 239.638C97.9871 241.816 97.984 243.994 97.9792 246.173C97.9842 247.19 97.9891 248.207 97.9942 249.255C97.9358 256.349 97.9358 256.349 95.2136 259.071C93.8424 257.903 92.5004 256.7 91.1701 255.485C90.4195 254.82 89.6689 254.154 88.8956 253.468C83.0334 245.723 81.8263 234.886 79.8787 225.578C79.6246 224.391 79.3705 223.204 79.1086 221.981C77.677 215.262 76.3103 208.534 75.0106 201.789C74.4622 199.038 74.4622 199.038 73.2412 195.595C72.1624 213.217 71.1878 241.211 82.4727 255.485C83.9617 256.909 85.4601 258.327 87.0282 259.663C89.7635 262.093 92.2948 264.693 94.856 267.306C99.8339 272.379 104.863 277.393 109.933 282.374C110.715 283.143 111.497 283.913 112.303 284.706C113.012 285.362 113.72 286.018 114.45 286.694C115.965 288.368 115.965 288.368 115.965 290.809C101.061 290.809 86.1561 290.809 70.7999 290.809C70.7999 290.003 70.7999 289.198 70.7999 288.368C70.0888 288.031 69.3778 287.694 68.6452 287.346C56.1117 280.822 46.4706 270.185 42.0209 256.808C38.335 244.717 35.5234 232.381 32.9586 220.009C32.8233 230.028 33.6306 239.428 35.3999 249.306C35.6423 250.811 35.8846 252.317 36.1342 253.869C38.709 266.392 44.2949 273.755 53.1094 282.734C55.4837 285.304 57.6283 288.077 59.8137 290.809C40.0752 290.809 20.3366 290.809 0 290.809C1.61044 277.925 3.39965 265.367 5.87456 252.662C6.53083 249.244 7.18263 245.825 7.83433 242.406C7.99754 241.552 8.16074 240.699 8.32889 239.82C9.68398 232.711 10.9582 225.589 12.2096 218.461C13.1866 212.901 14.1879 207.345 15.1942 201.791C15.6266 199.385 16.0517 196.978 16.4674 194.569C19.6759 176.082 26.5974 162.345 37.3818 147.01C42.2855 139.937 44.1365 133.37 45.1654 124.795C44.1584 124.544 43.1513 124.292 42.1137 124.033C36.6472 121.885 32.6182 118.688 28.0758 115.03C27.0845 114.308 26.0931 113.585 25.0718 112.841C14.3253 103.5 7.10825 88.1054 5.82211 74.1322C4.42152 52.252 8.4226 36.9395 22.7258 19.907C34.3689 7.34467 48.7761 1.25511 65.569 0.046987Z" fill="white"/>
<path d="M118.406 38.1265C127.181 46.6971 129.359 56.7171 129.698 68.6437C129.647 74.4454 129.114 78.4051 125.73 83.2919C125.227 84.0724 124.723 84.8529 124.205 85.657C122.068 86.954 122.068 86.954 117.949 87.1065C112.847 85.5233 111.431 84.2125 108.722 79.7872C103.428 69.219 102.524 58.3864 103.758 46.6713C106.448 38.653 110.065 35.6731 118.406 38.1265Z" fill="#15140D"/>
</svg>
