<svg width="188" height="285" viewBox="0 0 188 285" fill="none" xmlns="http://www.w3.org/2000/svg">
<path d="M131.658 10.6906C147.21 21.3882 158.127 37.7627 163.226 55.9481C166.555 74.8112 164.202 94.2644 153.174 110.22C141.354 124.984 126.651 129.583 108.917 133.522C110.239 133.957 110.239 133.957 111.587 134.401C112.755 134.802 113.923 135.203 115.126 135.616C116.279 136.005 117.431 136.394 118.619 136.794C122.083 138.309 122.083 138.309 124.771 140.577C130.222 144.744 136.658 146.62 143.052 148.976C151.509 152.2 159.145 155.77 164.199 163.668C164.734 164.475 165.27 165.282 165.821 166.114C170.845 175.662 173.625 185.584 176.018 196.059C176.327 197.386 176.636 198.712 176.955 200.079C177.559 202.683 178.158 205.287 178.752 207.893C179.378 210.634 180.017 213.371 180.665 216.107C185.058 235.344 188.229 255.735 187.987 275.503C187.962 278.416 187.938 281.329 187.912 284.33C179.223 284.33 170.533 284.33 161.581 284.33C161.089 277.929 160.598 271.527 160.112 265.125C159.947 262.958 159.781 260.791 159.614 258.625C158.658 246.206 157.776 233.795 157.229 221.351C157.028 217.058 156.72 212.828 156.167 208.565C155.584 204.042 155.478 199.718 155.521 195.162C155.532 193.693 155.543 192.224 155.554 190.711C155.575 189.063 155.575 189.063 155.596 187.382C154.806 187.382 154.016 187.382 153.202 187.382C153.209 188.915 153.215 190.449 153.221 192.029C153.244 197.939 153.257 203.848 153.268 209.758C153.274 212.274 153.282 214.791 153.293 217.307C153.384 239.688 152.684 261.936 152.005 284.33C118.038 284.33 84.0698 284.33 49.0726 284.33C48.6777 258.657 48.2827 232.984 47.8757 206.532C41.9415 236.031 41.9415 236.031 36.6549 265.629C36.3421 267.483 36.0289 269.338 35.7151 271.193C34.9745 275.571 34.2439 279.95 33.513 284.33C22.4537 284.33 11.3944 284.33 0 284.33C1.06495 249.897 8.46461 214.093 18.0282 181.098C18.2927 180.165 18.5572 179.232 18.8297 178.271C22.0279 167.818 27.1259 159.145 37.0482 153.808C39.6584 152.558 42.2927 151.405 44.9583 150.278C46.3739 149.662 46.3739 149.662 47.8182 149.033C54.6534 146.086 61.5572 143.408 68.5829 140.946C72.2593 139.308 74.8886 137.499 77.7981 134.719C78.839 132.17 78.839 132.17 78.995 129.931C78.097 129.524 77.1991 129.116 76.2739 128.697C57.7812 119.94 44.1992 107.552 37.1037 88.0398C31.0491 70.3156 32.3113 53.6899 39.8388 36.6903C46.6685 23.126 56.2619 14.0112 69.4198 6.65104C70.6788 5.93515 71.9378 5.21926 73.2349 4.48167C92.7829 -3.77194 113.944 -0.000622088 131.658 10.6906Z" fill="white"/>
<path d="M94.555 40.1643C101.352 45.9082 104.898 52.0646 105.687 60.993C105.721 71.1715 105.359 77.2943 99.1182 85.4966C94.8405 88.7286 91.5204 89.7513 86.1768 89.2369C79.6599 86.2291 77.256 82.2804 74.2078 76.0711C72.7554 71.7139 72.7446 67.6682 72.7117 63.1297C72.687 62.2927 72.6623 61.4557 72.6369 60.5933C72.58 52.9944 74.603 48.3972 79.5938 42.7825C84.6154 38.3886 88.2599 38.3807 94.555 40.1643Z" fill="#13130C"/>
<path d="M141.238 40.7998C144.625 41.595 146.44 43.472 148.378 46.2933C153.528 55.6768 154.471 65.4619 153.203 76.0707C150.901 81.5188 148.857 85.0683 143.627 88.0396C139.438 88.1893 139.438 88.1893 135.249 86.8427C129.42 81.2723 126.874 75.5749 126.511 67.5802C126.494 65.8224 126.489 64.0644 126.497 62.3064C126.468 60.9896 126.468 60.9896 126.438 59.6462C126.432 52.8698 128.24 48.4589 131.883 42.7073C134.894 40.8382 137.743 40.6458 141.238 40.7998Z" fill="#14130C"/>
</svg>
